<svg xmlns="http://www.w3.org/2000/svg" viewBox="0 0 146.9 137.1"><defs><style>.cls-1{font-size:29.32px;font-family:CenturyGothic, Century Gothic;}.cls-1,.cls-2{fill:#26b170;}.cls-3{fill:#fcee21;}.cls-4{fill:#fecb00;}.cls-5{fill:#7ed348;}.cls-6{fill:#ff0;}</style></defs><g id="Layer_2" data-name="Layer 2"><g id="Logos"><text class="cls-1" transform="translate(20.7 128.11)">Kokatoo</text><path class="cls-2" d="M74.9,34.51C74.47,47.46,72.47,51,72.47,51c.68,1.36.53,7,.53,9a27.35,27.35,0,0,1-.47,4.36,103.07,103.07,0,0,0,5.93-14.75A81.13,81.13,0,0,0,81.81,25l.37.32c.54.61,1.77,5.4,2.71,11.21A22.06,22.06,0,0,0,85,34.34C85,25,79,8,72,0H71C74,9,75.25,23.94,74.9,34.51Z"/><path class="cls-3" d="M39,38C31,28,15,23,0,26v2c7,1,16.66,5.6,23.44,11.39A41.42,41.42,0,0,1,33.28,52c1.61,3.22.72,1,3.7,10.16C40.4,72.59,44,84,43,95c1.16,1,2.53,2.15,4.18,3.55-.54-1.1-.52-1.81-3.18-4.55,4.57-9.1,2.28-28.58,1-35C43,49,33,41,24,35l1-1C35,35,38,37,39,38Z"/><path class="cls-4" d="M34,9l-1,1c4,3,11,12,13,15,0,0,6,10,8,16,1,3,2,4,3,11a73.35,73.35,0,0,1,1,9v3c.92.41,4,2,4,2,0-4,.92-6,0-13-.68-5.16-2.4-9.21-4-14-1-3-6-10-6-11l1-1c3,1,14.51,11.2,17,20-.48-5-4.94-13.86-8-18C55.17,19.77,48,12,34,9Z"/><path class="cls-5" d="M101.07,3.47l-.88-.11c-.66,4.15-1.47,8.3-2.4,12.41a141.51,141.51,0,0,1-7.15,24.14C89.45,42.72,87.8,44.65,86,48c0,.08,0,1.9,0,2a36.48,36.48,0,0,1-5,19c1-1,4.11-4.91,5-6,9-11,9.5-14.84,13-24C103.41,27.46,102,15,101.07,3.47Z"/><path class="cls-6" d="M103,76.14l2.39-1.41A17.26,17.26,0,0,1,112.42,73c4.2-4.84,4.24-5.83,8.81-9.33,7.12-5.75,16.78-7.55,25.67-8.91l-.07-.89a31.65,31.65,0,0,0-29.43,1.77c-.65.43-1.27.91-1.88,1.39-2.32,4.73-3.7,5.94-6.85,9.82l-2.9,2.39c-1,1-2.16,3.92-3.27,6.87"/><path class="cls-4" d="M117,20h-1a72.25,72.25,0,0,1-5,15l-2,4c-.77,1.54-2.32,4.3-4.07,7.13a66.87,66.87,0,0,1-5.7,16.58c-1.16,2-2.4,4-3.68,6A87.68,87.68,0,0,0,103,61C114,49,119,34,117,20Z"/></g></g></svg>